<svg width="25" height="24" viewBox="0 0 25 24" fill="none" xmlns="http://www.w3.org/2000/svg">
<g id=" arrow-down">
<path id="Icon" fill-rule="evenodd" clip-rule="evenodd" d="M19.2682 13.36C18.9142 12.936 18.2842 12.878 17.8602 13.232L13.5002 16.865V5C13.5002 4.448 13.0522 4 12.5002 4C11.9482 4 11.5002 4.448 11.5002 5V16.865L7.14023 13.232C6.71523 12.878 6.08523 12.936 5.73223 13.36C5.37823 13.784 5.43523 14.415 5.86023 14.768L11.8602 19.768C11.9072 19.808 11.9632 19.827 12.0152 19.857C12.0562 19.881 12.0922 19.909 12.1372 19.927C12.2542 19.973 12.3762 20 12.5002 20C12.6242 20 12.7462 19.973 12.8632 19.927C12.9082 19.909 12.9442 19.881 12.9852 19.857C13.0372 19.827 13.0932 19.808 13.1402 19.768L19.1402 14.768C19.5642 14.415 19.6222 13.784 19.2682 13.36Z" fill="white"/>
</g>
</svg>
