<svg width="20" height="20" viewBox="0 0 20 20" fill="none" xmlns="http://www.w3.org/2000/svg">
<g id="Group 1">
<g id="Group">
<g id="Group_2">
<path id="Vector" d="M7.68974 14.1016C7.36701 14.1016 7.10541 14.3639 7.10541 14.6875V17.0703C7.10541 17.3939 7.36705 17.6562 7.68974 17.6562C8.01244 17.6562 8.27408 17.3939 8.27408 17.0703V14.6875C8.27412 14.3639 8.01248 14.1016 7.68974 14.1016Z" fill="#192038"/>
</g>
</g>
<g id="Group_3">
<g id="Group_4">
<path id="Vector_2" d="M10.0271 14.1016C9.70445 14.1016 9.44281 14.3639 9.44281 14.6875V17.0703C9.44281 17.3939 9.70445 17.6562 10.0271 17.6562C10.3498 17.6562 10.6115 17.3939 10.6115 17.0703V14.6875C10.6115 14.3639 10.3499 14.1016 10.0271 14.1016Z" fill="#192038"/>
</g>
</g>
<g id="Group_5">
<g id="Group_6">
<path id="Vector_3" d="M12.3645 14.1016C12.0418 14.1016 11.7802 14.3639 11.7802 14.6875V17.0703C11.7802 17.3939 12.0418 17.6562 12.3645 17.6562C12.6872 17.6562 12.9488 17.3939 12.9488 17.0703V14.6875C12.9489 14.3639 12.6872 14.1016 12.3645 14.1016Z" fill="#192038"/>
</g>
</g>
<g id="Group_7">
<g id="Group_8">
<path id="Vector_4" d="M14.7409 14.1016C14.4182 14.1016 14.1566 14.3639 14.1566 14.6875V17.0703C14.1566 17.3939 14.4182 17.6562 14.7409 17.6562C15.0636 17.6562 15.3252 17.3939 15.3252 17.0703V14.6875C15.3252 14.3639 15.0636 14.1016 14.7409 14.1016Z" fill="#192038"/>
</g>
</g>
<g id="Group_9">
<g id="Group_10">
<path id="Vector_5" d="M20 2.96876C20 2.64514 19.7384 2.38283 19.4157 2.38283C17.5596 2.38283 15.844 3.37384 14.9018 4.94917C14.4847 4.80507 14.0374 4.72661 13.5722 4.72661C12.9516 4.72661 12.3348 4.86829 11.7802 5.12903V1.75782C11.7802 0.788545 10.9938 0 10.0272 0C9.06055 0 8.27414 0.788545 8.27414 1.75782V7.0416L7.35207 5.51888C6.94246 4.83053 6.23672 4.35459 5.42402 4.2473L4.62324 2.25475C4.1877 1.17099 2.84062 0.806602 1.92055 1.5246C1.46262 1.88198 1.13742 2.13579 0.676835 2.49525C-0.242696 3.21286 -0.22211 4.61185 0.719179 5.30161L2.44891 6.56919C2.3548 7.37133 2.63055 8.16449 3.18379 8.73311C3.20387 8.75712 3.22539 8.77905 3.24832 8.79899L3.86215 9.41405H1.80734C0.840703 9.41405 0.0542962 10.2026 0.0542962 11.1719C0.0542962 11.964 0.579687 12.6352 1.29934 12.8541L2.23687 18.5312C2.37836 19.3823 3.10555 20 3.96605 20H16.0882C16.9487 20 17.6759 19.3823 17.8175 18.5306L18.7549 12.8542C19.4746 12.6353 20 11.9641 20 11.1719C20 10.4711 19.5888 9.865 18.9957 9.58287C19.6423 8.68955 20 7.60653 20 6.48443V2.96876ZM11.7802 6.4856C12.2846 6.11029 12.9243 5.89842 13.5722 5.89842C15.1832 5.89842 16.4939 7.21269 16.4939 8.82809C16.4939 9.02644 16.4738 9.22232 16.4351 9.41402H11.7802V6.4856ZM9.44277 1.75782C9.44277 1.43471 9.70496 1.17189 10.0271 1.17189C10.3494 1.17189 10.6115 1.43475 10.6115 1.75782V9.41405H9.44277V1.75782ZM2.86543 5.42291L1.40879 4.35545C1.09519 4.12565 1.08797 3.65934 1.39465 3.41998L1.55539 3.29456L3.03148 5.19628C2.97207 5.26898 2.91668 5.34462 2.86543 5.42291ZM2.47769 2.5748L2.6384 2.44938C2.94492 2.21021 3.39398 2.33125 3.5393 2.69273L4.21367 4.37072C4.12539 4.40132 4.03863 4.43657 3.95379 4.47652L2.47769 2.5748ZM3.74699 7.52412C3.4434 6.89358 3.62012 6.13818 4.16996 5.70904C4.87176 5.16131 5.89457 5.35496 6.34926 6.12067C6.35012 6.12212 6.35098 6.12357 6.35188 6.12501L8.27414 9.29953V9.41402H5.51543L4.51395 8.41047L5.60555 7.55855C5.86023 7.35981 5.90598 6.99162 5.70781 6.73628C5.50957 6.4809 5.14238 6.43504 4.88777 6.63374L3.74699 7.52412ZM16.6646 18.3385C16.6175 18.6222 16.3751 18.8281 16.0882 18.8281H3.96605C3.67922 18.8281 3.43684 18.6222 3.38977 18.3391L2.49641 12.9297H17.5579L16.6646 18.3385ZM18.247 11.7578H1.80734C1.48512 11.7578 1.22301 11.4949 1.22301 11.1719C1.22301 10.8488 1.48516 10.5859 1.80734 10.5859C2.82687 10.5859 17.3003 10.5859 18.247 10.5859C18.5692 10.5859 18.8313 10.8488 18.8313 11.1719C18.8313 11.4949 18.5692 11.7578 18.247 11.7578ZM17.6233 9.39416C17.649 9.20744 17.6626 9.01857 17.6626 8.82809C17.6626 7.45197 16.9832 6.23199 15.9431 5.48762C16.5808 4.46426 17.6429 3.77019 18.8313 3.59702V6.48435C18.8313 7.57915 18.3937 8.62625 17.6233 9.39416Z" fill="#192038"/>
</g>
</g>
<g id="Group_11">
<g id="Group_12">
<path id="Vector_6" d="M13.5719 8.24253C13.8946 8.24253 14.1562 7.9802 14.1562 7.6566C14.1562 7.33301 13.8946 7.07068 13.5719 7.07068C13.2492 7.07068 12.9875 7.33301 12.9875 7.6566C12.9875 7.9802 13.2492 8.24253 13.5719 8.24253Z" fill="#192038"/>
</g>
</g>
<g id="Group_13">
<g id="Group_14">
<path id="Vector_7" d="M5.31346 14.1016C4.99073 14.1016 4.72913 14.3639 4.72913 14.6875V17.0703C4.72913 17.3939 4.99077 17.6562 5.31346 17.6562C5.63616 17.6562 5.8978 17.3939 5.8978 17.0703V14.6875C5.8978 14.3639 5.63616 14.1016 5.31346 14.1016Z" fill="#192038"/>
</g>
</g>
</g>
</svg>
