<svg width="32" height="32" viewBox="0 0 32 32" fill="none" xmlns="http://www.w3.org/2000/svg">
<g id=" info">
<path id="Icon" fill-rule="evenodd" clip-rule="evenodd" d="M14.6667 10.6667C14.6667 9.93066 15.264 9.33332 16 9.33332C16.736 9.33332 17.3334 9.93066 17.3334 10.6667C17.3334 11.4027 16.736 12 16 12C15.264 12 14.6667 11.4027 14.6667 10.6667ZM14.6667 14.6667C14.6667 13.9307 15.264 13.3333 16 13.3333C16.736 13.3333 17.3334 13.9307 17.3334 14.6667V21.3333C17.3334 22.0693 16.736 22.6667 16 22.6667C15.264 22.6667 14.6667 22.0693 14.6667 21.3333V14.6667ZM16 26.6667C10.1187 26.6667 5.33335 21.8813 5.33335 16C5.33335 10.1187 10.1187 5.33332 16 5.33332C21.8814 5.33332 26.6667 10.1187 26.6667 16C26.6667 21.8813 21.8814 26.6667 16 26.6667ZM16 2.66666C8.63602 2.66666 2.66669 8.63599 2.66669 16C2.66669 23.364 8.63602 29.3333 16 29.3333C23.3627 29.3333 29.3334 23.364 29.3334 16C29.3334 8.63599 23.3627 2.66666 16 2.66666Z" fill="white"/>
</g>
</svg>
