<svg width="25" height="24" viewBox="0 0 25 24" fill="none" xmlns="http://www.w3.org/2000/svg">
<g id=" navigation-2">
<path id="Icon" fill-rule="evenodd" clip-rule="evenodd" d="M8.36617 9.0986L13.5642 10.1556C13.9582 10.2346 14.2652 10.5416 14.3452 10.9356L15.4012 16.1336L18.9192 5.5806L8.36617 9.0986ZM15.1672 20.9996C15.1462 20.9996 15.1262 20.9986 15.1062 20.9976C14.6542 20.9706 14.2772 20.6426 14.1862 20.1996L12.5172 11.9826L4.30117 10.3126C3.85717 10.2226 3.52917 9.8456 3.50217 9.3936C3.47417 8.9416 3.75417 8.5276 4.18317 8.3846L20.1832 3.0516C20.5432 2.9296 20.9392 3.0246 21.2072 3.2926C21.4752 3.5606 21.5682 3.9566 21.4492 4.3166L16.1152 20.3166C15.9782 20.7266 15.5952 20.9996 15.1672 20.9996Z" fill="#2E3A59"/>
</g>
</svg>
