<svg width="25" height="24" viewBox="0 0 25 24" fill="none" xmlns="http://www.w3.org/2000/svg">
<path fill-rule="evenodd" clip-rule="evenodd" d="M7.10012 4C5.66612 4 4.50012 5.166 4.50012 6.6C4.50012 13.988 10.5111 20 17.9001 20C19.3331 20 20.5001 18.834 20.5001 17.4C20.5001 17.289 20.4931 17.18 20.4791 17.072L15.8591 16.012C15.7671 16.188 15.6661 16.379 15.5741 16.557C15.1181 17.427 14.7881 18.059 13.9461 17.72C10.6401 16.56 7.94112 13.86 6.76612 10.514C6.40912 9.729 7.08912 9.373 7.95112 8.923C8.12612 8.831 8.31512 8.732 8.48812 8.642L7.42812 4.021C7.31712 4.007 7.20912 4 7.10012 4ZM17.9001 22C9.40812 22 2.50012 15.092 2.50012 6.6C2.50012 4.063 4.56312 2 7.10012 2C7.36012 2 7.61712 2.022 7.86612 2.065C8.10912 2.104 8.35312 2.166 8.59112 2.248C8.91612 2.361 9.16112 2.634 9.23812 2.97L10.6071 8.934C10.6831 9.262 10.5881 9.606 10.3541 9.85C10.2181 9.992 10.2151 9.995 8.97512 10.644C9.97912 12.818 11.7241 14.557 13.8541 15.527C14.5041 14.286 14.5081 14.282 14.6501 14.146C14.8941 13.912 15.2401 13.821 15.5661 13.893L21.5311 15.262C21.8661 15.339 22.1391 15.583 22.2511 15.908C22.3331 16.144 22.3951 16.388 22.4361 16.639C22.4781 16.886 22.5001 17.142 22.5001 17.4C22.5001 19.937 20.4361 22 17.9001 22Z" fill="#2E3A59"/>
</svg>
