<svg width="32" height="32" viewBox="0 0 32 32" fill="none" xmlns="http://www.w3.org/2000/svg">
<g id=" phone">
<path id="Icon" fill-rule="evenodd" clip-rule="evenodd" d="M8.80014 5.33341C6.88814 5.33341 5.33348 6.88808 5.33348 8.80008C5.33348 18.6507 13.3481 26.6667 23.2001 26.6667C25.1108 26.6667 26.6668 25.1121 26.6668 23.2001C26.6668 23.0521 26.6575 22.9067 26.6388 22.7627L20.4788 21.3494C20.3561 21.5841 20.2215 21.8387 20.0988 22.0761C19.4908 23.2361 19.0508 24.0787 17.9281 23.6267C13.5201 22.0801 9.92148 18.4801 8.35481 14.0187C7.87881 12.9721 8.78548 12.4974 9.93481 11.8974C10.1681 11.7747 10.4201 11.6427 10.6508 11.5227L9.23748 5.36141C9.08948 5.34275 8.94548 5.33341 8.80014 5.33341ZM23.2001 29.3334C11.8775 29.3334 2.66681 20.1227 2.66681 8.80008C2.66681 5.41741 5.41748 2.66675 8.80014 2.66675C9.14681 2.66675 9.48948 2.69608 9.82148 2.75341C10.1455 2.80541 10.4708 2.88808 10.7881 2.99741C11.2215 3.14808 11.5481 3.51208 11.6508 3.96008L13.4761 11.9121C13.5775 12.3494 13.4508 12.8081 13.1388 13.1334C12.9575 13.3227 12.9535 13.3267 11.3001 14.1921C12.6388 17.0907 14.9655 19.4094 17.8055 20.7027C18.6721 19.0481 18.6775 19.0427 18.8668 18.8614C19.1921 18.5494 19.6535 18.4281 20.0881 18.5241L28.0415 20.3494C28.4881 20.4521 28.8521 20.7774 29.0015 21.2107C29.1108 21.5254 29.1935 21.8507 29.2481 22.1854C29.3041 22.5147 29.3335 22.8561 29.3335 23.2001C29.3335 26.5827 26.5815 29.3334 23.2001 29.3334Z" fill="white"/>
</g>
</svg>
